<?xml version="1.0" encoding="UTF-8" standalone="no"?><svg xmlns="http://www.w3.org/2000/svg" xmlns:xlink="http://www.w3.org/1999/xlink" contentScriptType="application/ecmascript" contentStyleType="text/css" height="215px" preserveAspectRatio="none" style="width:694px;height:215px;background:#FFFFFF;" version="1.1" viewBox="0 0 694 215" width="694px" zoomAndPan="magnify"><defs><filter height="300%" id="f17rowfc2kk7u4" width="300%" x="-1" y="-1"><feGaussianBlur result="blurOut" stdDeviation="2.0"/><feColorMatrix in="blurOut" result="blurOut2" type="matrix" values="0 0 0 0 0 0 0 0 0 0 0 0 0 0 0 0 0 0 .4 0"/><feOffset dx="4.0" dy="4.0" in="blurOut2" result="blurOut3"/><feBlend in="SourceGraphic" in2="blurOut3" mode="normal"/></filter></defs><g><!--MD5=[772ee633ac5c0fc15b3341f878b97099]
class PayableWorkflow--><rect codeLine="1" fill="#FEFECE" filter="url(#f17rowfc2kk7u4)" height="86.4141" id="PayableWorkflow" style="stroke:#A80036;stroke-width:1.5;" width="496" x="75.5" y="7"/><ellipse cx="267.25" cy="23" fill="#B4A7E5" rx="11" ry="11" style="stroke:#A80036;stroke-width:1.0;"/><path d="M263.1719,18.7656 L263.1719,16.6094 L270.5625,16.6094 L270.5625,18.7656 L268.0938,18.7656 L268.0938,26.8438 L270.5625,26.8438 L270.5625,29 L263.1719,29 L263.1719,26.8438 L265.6406,26.8438 L265.6406,18.7656 L263.1719,18.7656 Z " fill="#000000"/><text fill="#000000" font-family="sans-serif" font-size="12" font-style="italic" lengthAdjust="spacing" textLength="104" x="287.75" y="27.1543">PayableWorkflow</text><line style="stroke:#A80036;stroke-width:1.5;" x1="76.5" x2="570.5" y1="39" y2="39"/><line style="stroke:#A80036;stroke-width:1.5;" x1="76.5" x2="570.5" y1="47" y2="47"/><text fill="#000000" font-family="sans-serif" font-size="11" lengthAdjust="spacing" textLength="123" x="81.5" y="61.2104">__init__(payble_entity)</text><text fill="#000000" font-family="sans-serif" font-size="11" lengthAdjust="spacing" textLength="341" x="81.5" y="74.0151">check_if_accepting_payment() -&gt; None (throws BadRequest)</text><text fill="#000000" font-family="sans-serif" font-size="11" lengthAdjust="spacing" textLength="484" x="81.5" y="86.8198">apply_payment_result(payment_processor_result: PaymentProcessorResult) -&gt; None</text><!--MD5=[7b2710e290c910fb99d9d1e1211e9bd5]
class InvoicePayableWorkflow--><rect codeLine="7" fill="#FEFECE" filter="url(#f17rowfc2kk7u4)" height="48" id="InvoicePayableWorkflow" style="stroke:#A80036;stroke-width:1.5;" width="179" x="7" y="153"/><ellipse cx="22" cy="169" fill="#ADD1B2" rx="11" ry="11" style="stroke:#A80036;stroke-width:1.0;"/><path d="M24.9688,174.6406 Q24.3906,174.9375 23.75,175.0781 Q23.1094,175.2344 22.4063,175.2344 Q19.9063,175.2344 18.5781,173.5938 Q17.2656,171.9375 17.2656,168.8125 Q17.2656,165.6875 18.5781,164.0313 Q19.9063,162.375 22.4063,162.375 Q23.1094,162.375 23.75,162.5313 Q24.4063,162.6875 24.9688,162.9844 L24.9688,165.7031 Q24.3438,165.125 23.75,164.8594 Q23.1563,164.5781 22.5313,164.5781 Q21.1875,164.5781 20.5,165.6563 Q19.8125,166.7188 19.8125,168.8125 Q19.8125,170.9063 20.5,171.9844 Q21.1875,173.0469 22.5313,173.0469 Q23.1563,173.0469 23.75,172.7813 Q24.3438,172.5 24.9688,171.9219 L24.9688,174.6406 Z " fill="#000000"/><text fill="#000000" font-family="sans-serif" font-size="12" lengthAdjust="spacing" textLength="147" x="36" y="173.1543">InvoicePayableWorkflow</text><line style="stroke:#A80036;stroke-width:1.5;" x1="8" x2="185" y1="185" y2="185"/><line style="stroke:#A80036;stroke-width:1.5;" x1="8" x2="185" y1="193" y2="193"/><!--MD5=[c671064b289c00a7e502739ec91716be]
class BulkInvoicePayableWorkflow--><rect codeLine="8" fill="#FEFECE" filter="url(#f17rowfc2kk7u4)" height="48" id="BulkInvoicePayableWorkflow" style="stroke:#A80036;stroke-width:1.5;" width="205" x="221" y="153"/><ellipse cx="236" cy="169" fill="#ADD1B2" rx="11" ry="11" style="stroke:#A80036;stroke-width:1.0;"/><path d="M238.9688,174.6406 Q238.3906,174.9375 237.75,175.0781 Q237.1094,175.2344 236.4063,175.2344 Q233.9063,175.2344 232.5781,173.5938 Q231.2656,171.9375 231.2656,168.8125 Q231.2656,165.6875 232.5781,164.0313 Q233.9063,162.375 236.4063,162.375 Q237.1094,162.375 237.75,162.5313 Q238.4063,162.6875 238.9688,162.9844 L238.9688,165.7031 Q238.3438,165.125 237.75,164.8594 Q237.1563,164.5781 236.5313,164.5781 Q235.1875,164.5781 234.5,165.6563 Q233.8125,166.7188 233.8125,168.8125 Q233.8125,170.9063 234.5,171.9844 Q235.1875,173.0469 236.5313,173.0469 Q237.1563,173.0469 237.75,172.7813 Q238.3438,172.5 238.9688,171.9219 L238.9688,174.6406 Z " fill="#000000"/><text fill="#000000" font-family="sans-serif" font-size="12" lengthAdjust="spacing" textLength="173" x="250" y="173.1543">BulkInvoicePayableWorkflow</text><line style="stroke:#A80036;stroke-width:1.5;" x1="222" x2="425" y1="185" y2="185"/><line style="stroke:#A80036;stroke-width:1.5;" x1="222" x2="425" y1="193" y2="193"/><!--MD5=[5dd981ecb62688f0c02560756a246163]
class CheckoutLinkPayableWorkflow--><rect codeLine="9" fill="#FEFECE" filter="url(#f17rowfc2kk7u4)" height="48" id="CheckoutLinkPayableWorkflow" style="stroke:#A80036;stroke-width:1.5;" width="219" x="461" y="153"/><ellipse cx="476" cy="169" fill="#ADD1B2" rx="11" ry="11" style="stroke:#A80036;stroke-width:1.0;"/><path d="M478.9688,174.6406 Q478.3906,174.9375 477.75,175.0781 Q477.1094,175.2344 476.4063,175.2344 Q473.9063,175.2344 472.5781,173.5938 Q471.2656,171.9375 471.2656,168.8125 Q471.2656,165.6875 472.5781,164.0313 Q473.9063,162.375 476.4063,162.375 Q477.1094,162.375 477.75,162.5313 Q478.4063,162.6875 478.9688,162.9844 L478.9688,165.7031 Q478.3438,165.125 477.75,164.8594 Q477.1563,164.5781 476.5313,164.5781 Q475.1875,164.5781 474.5,165.6563 Q473.8125,166.7188 473.8125,168.8125 Q473.8125,170.9063 474.5,171.9844 Q475.1875,173.0469 476.5313,173.0469 Q477.1563,173.0469 477.75,172.7813 Q478.3438,172.5 478.9688,171.9219 L478.9688,174.6406 Z " fill="#000000"/><text fill="#000000" font-family="sans-serif" font-size="12" lengthAdjust="spacing" textLength="187" x="490" y="173.1543">CheckoutLinkPayableWorkflow</text><line style="stroke:#A80036;stroke-width:1.5;" x1="462" x2="679" y1="185" y2="185"/><line style="stroke:#A80036;stroke-width:1.5;" x1="462" x2="679" y1="193" y2="193"/><!--MD5=[e57f1e6b9e629719846857553a4b7b06]
reverse link PayableWorkflow to InvoicePayableWorkflow--><path d="M229.16,102.95 C197.53,120.37 163.84,138.92 138.34,152.96 " fill="none" id="PayableWorkflow-backto-InvoicePayableWorkflow" style="stroke:#A80036;stroke-width:1.0;stroke-dasharray:7.0,7.0;"/><polygon fill="none" points="226.07,96.66,246.96,93.15,232.82,108.92,226.07,96.66" style="stroke:#A80036;stroke-width:1.0;"/><!--MD5=[4bea284e1108e0516746a9047daefd29]
reverse link PayableWorkflow to BulkInvoicePayableWorkflow--><path d="M323.5,113.49 C323.5,127.49 323.5,141.48 323.5,152.67 " fill="none" id="PayableWorkflow-backto-BulkInvoicePayableWorkflow" style="stroke:#A80036;stroke-width:1.0;stroke-dasharray:7.0,7.0;"/><polygon fill="none" points="316.5,113.32,323.5,93.32,330.5,113.32,316.5,113.32" style="stroke:#A80036;stroke-width:1.0;"/><!--MD5=[9651d634c0e6d4d092a192b77472b90d]
reverse link PayableWorkflow to CheckoutLinkPayableWorkflow--><path d="M424.71,102.22 C459.55,119.85 496.83,138.72 524.98,152.96 " fill="none" id="PayableWorkflow-backto-CheckoutLinkPayableWorkflow" style="stroke:#A80036;stroke-width:1.0;stroke-dasharray:7.0,7.0;"/><polygon fill="none" points="421.46,108.42,406.78,93.15,427.78,95.93,421.46,108.42" style="stroke:#A80036;stroke-width:1.0;"/><!--MD5=[cd18da8c37d71b81dec4b81db22d0c3f]
@startuml
interface PayableWorkflow {
    __init__(payble_entity)
    check_if_accepting_payment() -> None (throws BadRequest)
    apply_payment_result(payment_processor_result: PaymentProcessorResult) -> None
}

class InvoicePayableWorkflow implements PayableWorkflow
class BulkInvoicePayableWorkflow implements PayableWorkflow
class CheckoutLinkPayableWorkflow implements PayableWorkflow
@enduml

PlantUML version 1.2021.7(Sun May 23 12:40:07 UTC 2021)
(GPL source distribution)
Java Runtime: OpenJDK Runtime Environment
JVM: OpenJDK 64-Bit Server VM
Default Encoding: UTF-8
Language: en
Country: null
--></g></svg>